<svg version="1.2" xmlns="http://www.w3.org/2000/svg" viewBox="0 0 61 57" width="61" height="57">
	<style>
		.s0 { fill: #f4ce86 } 
	</style>
	<path class="s0" d="m59.95 32.12c0.05-0.15-0.2-0.52-0.3-0.52h-7.78c-0.01-0.56 0.38-1 0.55-1.5 0.55-1.68 0.67-3.33 0.33-5.06-0.61-3.08-3.67-5.52-3.21-8.83 0.04-0.35 0.44-0.96 0.4-1.13-0.15-0.72-1.29-0.4-1.82-0.46l0.23-2.81c0.08-0.08 1.24 0.23 1.47 0.24 0.98 0.01 1.49-0.77 2.2-1.2 0.52-0.32 2.05-0.7 2.22-1.07 0.23-1.45-2.28-0.07-2.88 0.3-1.09 0.67-1.19 1.29-2.77 0.67 0.36-1.41 0.71-2.88 1.35-4.21 0.21-0.43 1.56-2.35 1.55-2.5-0.01-0.15-0.14-0.35-0.29-0.41-0.86-0.29-1.73 1.92-2.21 2.43-0.34 0.08-1.89-1.23-1.93-1.57 0.42-1.32 1.39-3.4 0.16-4.49-1.1-0.01-0.35 0.98-0.4 1.66-0.11 1.7-1.56 2.53-0.11 4.12 0.53 0.58 1.28 0.88 1.84 1.4-0.84 2.39-1.39 4.9-1.48 7.44-0.41 0.1-0.2-0.59-0.24-0.88-0.2-1.54-0.7-2.52-1.11-3.92-0.23-0.79-0.23-3.4-1.53-2.46l-0.05 0.28 1.17 4.17c-0.95-0.13-1.36-1.13-1.93-1.76-0.37-0.4-1.21-1.42-1.73-1.27-1.05 0.32 0.44 1.36 0.68 1.62 0.98 1.1 1.57 2.51 3.32 2.48l0.25 1.74h-1.7c-0.85 0 0.03 1.67 0.05 2.18 0.07 2.69-2.43 5.12-3.12 7.63-0.71 2.55-0.41 4.83 0.78 7.17h-11.7l0.71-1.98c3.67 0.57 4.21-4.32 0.45-4.28-0.29-0.39-0.08-1.65-0.54-1.8l-8 0.03c-0.12 0.1-0.17 0.24-0.21 0.38-0.38 1.44-0.26 3.62 0.03 5.07 0.18 0.9 0.51 1.75 0.88 2.58h-4.33v-3.69c0-0.6-1.25-0.38-1.64-0.41v-1.17l1.5-0.15c0.22-0.22 0.22-3.11 0.03-3.4q-0.08-0.12-0.23-0.15l-16.05 0.01c-0.05 0.03-0.23 0.32-0.23 0.35v2.28c-0.36 0.04-1.34-0.12-1.54 0.2-0.15 0.24-0.17 2.47-0.05 2.73 0.21 0.41 1.18 0.18 1.59 0.23v3.17c-0.14 0.14-2.26-0.25-2.58 0.23v12.06c0.2 0.36 0.56 0.36 0.94 0.35 0.08 0.55-0.31 2.69 0.52 2.69h6.03l0.74 9.17q0.03 0.12 0.13 0.21c0.19 0.16 2.31 0.15 2.71 0.12 0.68-0.07 0.67-0.39 0.74-1.02 0.3-2.62 0.22-5.32 0.48-7.95 0.02-0.18 0.09-0.35 0.12-0.53h35.13c0.02 0.18 0.1 0.35 0.11 0.53 0.27 2.63 0.19 5.33 0.49 7.95 0.07 0.63 0.05 0.95 0.74 1.02 0.4 0.03 2.51 0.04 2.71-0.12q0.09-0.09 0.13-0.21l0.73-9.17h6.03c0.84 0 0.44-2.14 0.53-2.69 0.62 0 0.87 0.02 0.94-0.64 0.37-3.6-0.29-7.82 0-11.48zm-28.57-5.79c2.22-0.07 1.94 2.62-0.24 2.22zm10.42-0.29c0.33-3.6 4.27-6.45 3.28-10.37h3.51c-0.4 1.94 0.35 3.82 1.23 5.51 0.48 0.91 1.13 1.73 1.52 2.69 0.99 2.45 0.84 5.5-0.84 7.59h-7.33c-1.15-1.5-1.53-3.55-1.37-5.42zm-18.38-0.36c0.03-0.35 0.09-0.98 0.29-1.23h6.33l0.15 0.2c0.4 2.4-0.04 4.8-1.17 6.93h-4.29c-0.93-1.79-1.47-3.86-1.31-5.9zm-5.27 2.75v3.17h-14.52v-3.17zm-14.51-4.8h14.51v1.64h-14.51zm-1.64 3.87v-1.17h14.51v1.17zm-0.93 15.69v-10.66h28.45v10.66zm9.61 12.24l-1.53 0.05-0.59-8.55h2.81zm40.04 0c-0.3 0.05-1.41 0.2-1.51-0.14l-0.6-8.35h2.81l-0.7 8.49zm7.26-9.55h-55.97v-1.64h55.97zm0.93-2.69h-28.45v-10.65h28.45z"/>
</svg>